<svg width="1080" height="1080" viewBox="0 0 1080 1080" fill="none" xmlns="http://www.w3.org/2000/svg">
<g clip-path="url(#clip0_909_979)">
<rect width="1080" height="1080" fill="#5956FF"/>
<path fill-rule="evenodd" clip-rule="evenodd" d="M408.185 492.016C390.929 514.253 373.005 537.215 355.716 557.79C326.764 592.245 293.763 630.067 252.322 664.525C238.208 676.261 222.151 687.592 203.668 697.593C203.34 697.77 202.972 697.971 202.564 698.195C196.431 701.549 181.414 709.761 163.406 713.115C145.796 716.395 123.091 715.925 102.418 702.34C81.6889 688.72 73.3524 668.726 70.3247 654.588C66.6382 637.372 67.8245 619.059 68.321 611.395C68.3854 610.4 68.4383 609.584 68.4673 608.974C69.9324 578.155 76.4886 548.473 82.8132 523.162C86.6119 507.96 92.4665 489.253 97.4677 473.273C98.4213 470.227 99.3437 467.279 100.215 464.474C77.1005 480.683 55.3601 498.559 32.0895 517.694C30.8861 518.684 29.6785 519.677 28.4665 520.673C-14.754 556.199 -53.4104 593.643 -93.5629 633.075C-106.591 645.869 -120.216 658.235 -134.135 670.181C-134.481 670.478 -134.663 670.644 -135.085 671.027C-135.482 671.388 -136.091 671.941 -137.246 672.976C-139.02 674.566 -141.758 676.981 -145.046 679.526C-151.587 684.587 -162.11 691.612 -176.415 695.59C-190.244 699.437 -203.403 698.45 -213.559 695.849C-220.902 693.968 -241.509 687.504 -254.239 666.1C-264.759 648.409 -264.751 630.938 -264.536 623.814C-264.429 620.272 -264.126 616.864 -263.99 615.323C-263.976 615.17 -263.964 615.035 -263.954 614.92C-263.915 614.467 -263.888 614.142 -263.871 613.924C-263.854 594.6 -263.254 575.542 -262.404 556.844L-262.317 554.942C-260.908 523.979 -259.57 494.575 -259.734 466.106C-277.354 484.078 -305.314 489.215 -328.727 476.891C-357.319 461.842 -368.303 426.453 -353.261 397.847C-342.133 376.687 -324.615 358.258 -302.942 344.705C-294.748 339.582 -284.659 335.477 -277.315 332.893C-270.417 330.465 -257.667 326.401 -244.536 325.753C-238.98 325.478 -230.743 325.617 -227.817 325.666C-227.284 325.675 -226.928 325.681 -226.796 325.681C-213.428 325.681 -198.967 328.489 -185.398 336.259C-171.657 344.127 -162.423 355.03 -156.555 365.59C-147.053 382.69 -145.731 401.054 -145.435 405.17C-145.415 405.444 -145.4 405.655 -145.387 405.798C-141.992 443.912 -142.373 482.214 -143.666 518.472C-113.104 488.971 -81.0113 459.172 -45.8031 430.232C-44.1779 428.896 -42.5399 427.548 -40.8892 426.19C-13.7948 403.897 16.7527 378.763 51.2373 356.338C52.4402 355.556 53.8084 354.641 55.3349 353.621C72.4423 342.184 109.418 317.465 156.064 317.165C156.15 317.161 156.251 317.157 156.367 317.152L156.444 317.149C157.238 317.113 159.148 317.028 161.285 317.025C163.34 317.023 167.201 317.079 171.768 317.716C175.276 318.205 185.184 319.754 195.725 326.135C218.843 340.129 225.963 362.089 228.255 373.19C230.28 382.995 230.234 394.624 230.155 392.47C231.384 425.932 224.353 456.706 217.009 482.387C213.241 495.564 209.963 505.839 206.965 515.234C203.098 527.357 199.698 538.015 196.316 551.55C195.611 554.37 194.931 557.144 194.279 559.875C220.061 536.23 242.835 510.229 266.162 482.469C285.012 460.035 300.889 439.479 317.504 417.968C330.321 401.373 343.578 384.21 358.977 365.178C376.706 343.267 396.918 320.213 422.844 298.16C423.359 297.722 423.903 297.257 424.477 296.766C431.379 290.864 442.492 281.363 456.506 273.326C461.19 270.64 466.767 268.314 471.923 266.771L472.016 266.743C474.039 266.136 481.839 263.797 491.709 264.014C496.452 264.118 508.773 264.857 521.729 272.862C538.281 283.089 548.412 300.554 549.606 319.347C551.034 341.831 547.296 363.807 544.848 378.198C544.552 379.94 544.274 381.57 544.027 383.077C541.452 398.786 538.776 413.418 536.232 427.334C529.404 464.671 523.522 496.844 523.058 530.772C523.02 533.599 522.98 536.404 522.941 539.19C522.306 584.114 521.744 623.847 526.879 662.036C548.857 637.501 567.873 610.84 588.621 581.581C602.083 562.597 614.48 543.72 627.527 523.853C632.529 516.237 637.626 508.476 642.915 500.508C661.53 472.462 681.733 443.105 705.383 414.225C706.706 412.611 708.054 410.957 709.431 409.269C731.957 381.654 762.039 344.775 807.531 316.861C808.592 316.126 810.811 314.621 813.571 313.058C816.591 311.348 821.674 308.743 828.303 306.846C835.043 304.916 844.896 303.289 856.449 305.287C886.111 310.417 897.94 333.688 900.711 339.887C904.32 347.96 905.382 355.11 905.762 357.979C906.633 364.556 906.472 370.569 906.368 373.386C906.239 376.893 905.977 380.091 905.801 382.075C905.776 382.363 905.749 382.657 905.723 382.935C905.235 401.261 900.438 419.585 897.927 429.175C897.491 430.84 897.125 432.241 896.861 433.334C891.646 454.96 887.875 476.552 885.371 498.473C883.847 511.81 882.886 525.272 882.358 538.971C892.872 525.272 903.669 510.833 914.72 496.056C937.411 465.713 961.172 433.94 985.744 404.191C990.566 398.352 998.649 388.716 1010.03 379.779C1010.06 379.756 1010.09 379.732 1010.11 379.708C1011.16 378.823 1013.24 377.083 1015.86 375.221L1015.98 375.138C1017.59 373.992 1024.12 369.342 1033.23 366.336C1037.49 364.928 1049.79 361.264 1065.2 364.765C1085.48 369.373 1100.92 383.953 1107.56 402.033C1113 416.846 1112.06 430.219 1111.72 434.769C1111.58 436.734 1111.32 439.234 1111.23 440.125C1111.23 442.144 1111.25 444.396 1111.27 446.81C1111.34 454.812 1111.42 464.582 1111.11 473.465C1110.87 480.344 1110.59 485.137 1110.36 489.22C1110.05 494.441 1109.82 498.5 1109.82 504.275C1109.82 509.058 1109.59 513.62 1109.44 516.762L1109.43 516.896C1109.26 520.413 1109.16 522.476 1109.13 524.424C1109.12 525.222 1109.13 525.818 1109.14 526.236C1113.99 540.369 1120.14 551.551 1127.66 558.996C1150.62 581.738 1150.8 618.793 1128.07 641.762C1105.34 664.731 1068.3 664.915 1045.34 642.174C1023.79 620.818 1010.6 595.888 1002.23 574.469C992.138 587.959 981.728 601.782 970.616 616.147C967.98 619.556 965.173 623.274 962.191 627.226C947.715 646.409 929.091 671.088 905.566 692.514C906.103 692.025 897.962 700.066 888.239 705.952C878.307 711.964 856.162 722.398 828.92 714.152C806.331 707.315 794.764 691.253 789.894 682.858C788.038 679.658 786.647 676.685 785.95 675.142C778.461 661.969 771.176 645.715 767.645 627.586C763.856 608.136 764.409 586.192 764.722 573.794C764.789 571.142 764.845 568.927 764.845 567.267C764.845 554.364 765.099 541.329 765.719 528.163C757.172 540.198 748.815 552.549 740.378 565.26C735.787 572.177 731.108 579.301 726.343 586.557C712.919 606.999 698.809 628.485 684.042 649.31L682.949 650.85C657.002 687.444 627.353 729.258 587.494 767.707C586.625 768.545 585.571 769.593 584.349 770.808C577.416 777.699 565.102 789.941 550.759 799.521C545.375 803.118 532.256 811.485 514.283 814.204C505.345 815.557 497.437 814.908 492.682 814.283C487.894 813.655 480.584 812.293 472.902 809.096C455.424 801.822 444.996 789.515 439.155 779.798C436.496 775.374 434.756 771.448 433.876 769.397C433.471 768.453 433.025 767.371 432.948 767.187C432.941 767.17 432.934 767.154 432.928 767.139C424.73 749.059 420.741 730.275 418.265 718.612C417.966 717.203 417.689 715.898 417.429 714.711C404.184 654.177 405.103 593.583 405.903 540.797C405.963 536.879 406.022 533.003 406.074 529.174C406.242 516.841 407.009 504.402 408.185 492.016ZM874.004 413.183C874.049 413.152 874.023 413.171 873.935 413.231L874.004 413.183ZM789.453 369.043C789.452 368.826 789.456 368.707 789.459 368.701C789.461 368.696 789.462 368.805 789.453 369.043ZM785.154 673.375C785.153 673.37 785.206 673.481 785.321 673.735C785.215 673.511 785.156 673.381 785.154 673.375ZM1008.87 380.776C1008.25 381.304 1008.09 381.465 1008.85 380.797L1008.85 380.795C1008.86 380.789 1008.87 380.783 1008.87 380.776ZM892.573 626.949C892.573 626.95 892.546 626.893 892.489 626.766C892.544 626.883 892.573 626.948 892.573 626.949ZM905.529 385.099C905.524 385.125 905.541 384.902 905.592 384.352C905.559 384.797 905.534 385.072 905.529 385.099Z" fill="#E3FC4C"/>
</g>
<defs>
<clipPath id="clip0_909_979">
<rect width="1080" height="1080" fill="white"/>
</clipPath>
</defs>
</svg>
